<?xml version="1.0" encoding="utf-8"?>
<!-- Generator: Adobe Illustrator 23.0.4, SVG Export Plug-In . SVG Version: 6.00 Build 0)  -->
<svg version="1.1" id="Layer_1" xmlns="http://www.w3.org/2000/svg" xmlns:xlink="http://www.w3.org/1999/xlink" x="0px" y="0px"
	 viewBox="0 0 54.4 61.5" style="enable-background:new 0 0 54.4 61.5;" xml:space="preserve">
<g>
	<path d="M40,61.5H5.7c-0.6,0-1.2-0.2-1.7-0.6l-3.1-2.7c-0.8-0.7-1.1-1.8-0.7-2.8s1.3-1.7,2.4-1.7h40.5c1.1,0,2,0.7,2.4,1.7
		s0.1,2.1-0.7,2.8l-3.1,2.7C41.2,61.3,40.6,61.5,40,61.5z M2.6,55.7c-0.3,0-0.5,0.3-0.5,0.4S2,56.5,2.3,56.7l3.1,2.7
		c0.1,0.1,0.2,0.1,0.4,0.1h34.3c0.1,0,0.3,0,0.4-0.1l3.1-2.7c0.3-0.2,0.2-0.5,0.2-0.6s-0.2-0.4-0.5-0.4H2.6z"/>
	<path d="M12.8,55.6C5.5,51.8,1,44.4,1,36.2v-9.1c0-1.6,1.3-2.9,2.9-2.9h37.8c1.6,0,2.9,1.3,2.9,2.9v9.1c0,2.3-0.4,4.6-1.1,6.8
		c-0.4,1.2-0.9,2.4-1.5,3.6c-2.1,3.9-5.3,7-9.2,9.1l-0.9-1.9c3.6-1.8,6.5-4.7,8.4-8.2c0.6-1,1-2.1,1.4-3.2c0.6-2,1-4,1-6.1v-9.1
		c0-0.5-0.4-0.9-0.9-0.9H3.9c-0.5,0-0.9,0.4-0.9,0.9v9.1c0,7.5,4.1,14.2,10.7,17.6L12.8,55.6z"/>
	<path d="M41.8,47.1c-0.2,0-0.4,0-0.6,0l0.1-2c0.2,0,0.4,0,0.6,0c5.8,0,10.5-3.8,10.5-8.5c0-4.1-3.8-7.8-8.8-8.4l0.3-2
		C50,27,54.4,31.4,54.4,36.6C54.3,42.3,48.7,47.1,41.8,47.1z M42.7,43.7l-0.2-2c3.6-0.3,6.4-2.5,6.4-5.1c0-2.4-2.3-4.5-5.4-5l0.3-2
		c4.2,0.7,7.1,3.6,7.1,7C51,40.2,47.4,43.3,42.7,43.7z"/>
	<path d="M11.3,19.2c-0.4,0-0.7-0.2-0.9-0.5l-1.3-2.6c-1-1.9-0.6-4.2,0.9-5.7c0.8-0.8,1.3-1.9,1.2-3s-0.5-2.2-1.4-2.9
		c-0.4-0.4-0.5-1-0.1-1.4s1-0.5,1.4-0.1c1.3,1.1,2,2.7,2,4.4c0,1.7-0.6,3.3-1.9,4.5c-0.9,0.9-1.1,2.2-0.5,3.3l1.3,2.6
		c0.3,0.5,0.1,1.1-0.4,1.3C11.6,19.1,11.5,19.2,11.3,19.2z"/>
	<path d="M22.4,20.7c-0.4,0-0.7-0.2-0.9-0.5l-1.7-3.3c-1.2-2.3-0.7-5.2,1.1-7c1.1-1.1,1.7-2.5,1.7-4.1c0-1.5-0.7-3-1.8-4
		c-0.4-0.4-0.5-1-0.1-1.4s1-0.5,1.4-0.1c1.6,1.4,2.5,3.4,2.5,5.4s-0.8,4.1-2.3,5.5c-1.2,1.2-1.5,3.1-0.8,4.6l1.7,3.3
		c0.3,0.5,0.1,1.1-0.4,1.3C22.7,20.7,22.6,20.7,22.4,20.7z"/>
	<path d="M33.7,19.2c-0.4,0-0.7-0.2-0.9-0.5l-1.3-2.6c-1-1.9-0.6-4.2,0.9-5.7c0.8-0.8,1.3-1.9,1.2-3s-0.5-2.2-1.4-2.9
		c-0.4-0.4-0.5-1-0.1-1.4s1-0.5,1.4-0.1c1.3,1.1,2,2.7,2,4.4c0,1.7-0.6,3.3-1.9,4.5c-0.9,0.9-1.1,2.2-0.5,3.3l1.3,2.6
		c0.3,0.5,0.1,1.1-0.4,1.3C34,19.1,33.9,19.2,33.7,19.2z"/>
	<path d="M16.2,51.5c-4,0-7-2.6-9.2-7.8c-0.2-0.5,0-1.1,0.5-1.3s1.1,0,1.3,0.5c1.9,4.5,4.3,6.6,7.6,6.5c0.5,0,1,0.4,1,1s-0.4,1-1,1
		C16.4,51.5,16.3,51.5,16.2,51.5z"/>
	<circle cx="6.5" cy="40.3" r="1.1"/>
</g>
</svg>
