<svg id="Layer_1" data-name="Layer 1" xmlns="http://www.w3.org/2000/svg" viewBox="0 0 87.87 72.84">
  <defs>
    <style>
      .cls-1 {
        fill: #d15d81;
      }
    </style>
  </defs>
  <title>logo</title>
  <g>
    <path class="cls-1" d="M57.48,31c-1.9-1.3-3.8,1.9-1.8,3.1,2.3,1.5,2.7,2.9,2.1,4-2.6-3.8-7.9-4.1-12.2-3.9A20.54,20.54,0,0,0,38,35.92a1.06,1.06,0,0,1-1-1.87,19.14,19.14,0,0,1,5.26-1.81,25.54,25.54,0,0,1,7.3-.2c1.5.1,3.2.7,4.6-.2a.48.48,0,0,0,.2-.6c-.7-2.9-5.4-3-7.7-3a23.7,23.7,0,0,0-10.5,2c-5.4,2.6-7.2,8.6-1.9,12.5,5.8,4.3,15.1,4.2,21.5,1.4C62,41.44,63.28,35,57.48,31Zm-8.7,11.3a24.18,24.18,0,0,1-8.6-.67,1.08,1.08,0,0,1,0-2.07,23,23,0,0,1,4.86-.76,14.48,14.48,0,0,1,6.06,1.07,1.07,1.07,0,0,1-.1,2A14.09,14.09,0,0,1,48.78,42.34Z" transform="translate(-1.57 -9.05)"/>
    <path class="cls-1" d="M80.08,69.34c12.3-12.3,12.3-33.2,1-46.1-2.3-2.6-6.1,1.2-3.8,3.8a28.71,28.71,0,0,1,6.8,23.9c-.1,0-.1.1-.2.1-3,2.4-7.5,1.6-10.5,4.1-3.3,2.7-3.9,7.4-8.3,9.1s-8.5-1.8-12.7-3.2a13,13,0,0,0-10.7,1.3c-3.5,1.9-7.4,4.7-11,1.2-2.9-2.9-3-7.3-5.5-10.5-2.2-2.7-5.6-2.7-8.8-2.3s-6.09-.11-8.27-2a3.09,3.09,0,0,1-1-2.07C6.28,36.52,11.62,27,20.68,21.34c7.5-4.7,16.5-6.7,25.3-6.8a58.27,58.27,0,0,1,13.2,1.4c3.85.87,6.1,1.39,8.89,3,3.6,2.07,6.17,4.84,9.21,8.12.32.34.62.68.9,1a2.13,2.13,0,0,0,3.58-.7l.39-1.11a2.11,2.11,0,0,0-.38-2.1,43.24,43.24,0,0,0-9.88-8.39C62.64,10,53.71,9.43,48.68,9.14a55.12,55.12,0,0,0-18,1.93,53.26,53.26,0,0,0-8.84,3.37c-13.8,6.7-22.8,20.7-19.7,36.2C8.78,83.84,58.18,91.44,80.08,69.34Zm-69.2-14.7a14.63,14.63,0,0,0,5.9.4c2.7-.3,4.7-.4,5.9,2.4,1.6,4,2.8,8.3,6.6,10.9,3.5,2.3,7.5,2,11.1.3a55.2,55.2,0,0,1,5.4-2.8c2.8-1,5.1-.2,7.6,1,4.3,2,8.3,4.2,13.1,2.5a13.63,13.63,0,0,0,5.4-3.5c1.6-1.7,2.3-3.8,3.7-5.6,1.6-2.1,4-2.3,6.4-2.9.1,0,.2-.1.4-.1a24.15,24.15,0,0,1-3.5,6c-8.6,11.2-24.9,14.7-38.2,13s-27.1-9.3-32-22.4C9.38,54,10.08,54.44,10.88,54.64Z" transform="translate(-1.57 -9.05)"/>
    <path class="cls-1" d="M24.28,27.14c.4-1.4-.8-3.3-2.4-3.1-2.3.2-3.8,2-5.3,3.5a20.39,20.39,0,0,0-4.1,4.7,2.06,2.06,0,0,0,2.8,2.8,28.14,28.14,0,0,0,4.8-3.5C21.68,30.24,23.78,29.14,24.28,27.14Z" transform="translate(-1.57 -9.05)"/>
    <path class="cls-1" d="M36.38,22.94c1.3,1.1,2.6,2.6,4.1,3.3,2.3,1.1,5.2-1.2,3.7-3.7-1-1.7-3-2.9-4.7-3.9-1.5-.9-3.4-2.2-5.2-1.6a1.87,1.87,0,0,0-1.1,2.8A13.49,13.49,0,0,0,36.38,22.94Z" transform="translate(-1.57 -9.05)"/>
    <path class="cls-1" d="M60.28,18.44c-1.9-.5-3.4.7-4.9,1.8a11.39,11.39,0,0,0-3.6,3.3,1.85,1.85,0,0,0,1.6,2.7c1.6.1,3.2-.8,4.7-1.5s3.4-1.5,3.9-3.4A2.49,2.49,0,0,0,60.28,18.44Z" transform="translate(-1.57 -9.05)"/>
    <path class="cls-1" d="M68.28,23.94a15.53,15.53,0,0,0,.2,4.3,32.58,32.58,0,0,0,.9,4.5c1,3.2,5.9,1.9,5-1.4a32,32,0,0,0-1.7-4.3,10.46,10.46,0,0,0-2.1-3.7A1.34,1.34,0,0,0,68.28,23.94Z" transform="translate(-1.57 -9.05)"/>
    <path class="cls-1" d="M65.48,45.94a1.53,1.53,0,0,0,1.3,2.3,15,15,0,0,0,6.2-1.9c2-.9,4.5-1.5,5.7-3.4,1-1.6-.4-3.3-2-3.5-2.2-.3-4.5,1.5-6.3,2.6A14.36,14.36,0,0,0,65.48,45.94Z" transform="translate(-1.57 -9.05)"/>
    <path class="cls-1" d="M53.48,51.14a12,12,0,0,0-4.2-2.5,1.52,1.52,0,0,0-1.7,2.2,21.83,21.83,0,0,0,2.6,3.6c.9,1.1,1.9,3,3.5,3.2a2.36,2.36,0,0,0,2.9-2.2C56.58,53.34,54.88,52.24,53.48,51.14Z" transform="translate(-1.57 -9.05)"/>
    <path class="cls-1" d="M33.88,53.14c-.9,1.1-2.5,2.8-2,4.5a1.26,1.26,0,0,0,1.2.9c1.5.2,2.9-1.4,3.9-2.3,1.2-1,3.4-2.1,3.1-3.9a2.35,2.35,0,0,0-1.6-2.1C36.58,49.64,35.08,51.74,33.88,53.14Z" transform="translate(-1.57 -9.05)"/>
    <path class="cls-1" d="M22.68,47.84a9.63,9.63,0,0,0,2.4,3.2,2.25,2.25,0,0,0,2.7-.2,2.61,2.61,0,0,0,.9-2.6c-.3-1.3-1.5-2.5-2.4-3.5a14.38,14.38,0,0,0-2.8-2.7,2,2,0,0,0-2.8,2.8C21.28,45.94,22.08,46.84,22.68,47.84Z" transform="translate(-1.57 -9.05)"/>
    <path class="cls-1" d="M30.68,33.24a2.4,2.4,0,0,0-2.9-1.4c-2.5.8-4.5,2.9-6.1,4.9-.7.9-.1,2.5,1.2,2.1,1.1-.4,2.3-.6,3.4-1.1a14.68,14.68,0,0,0,3.4-1.5A2.37,2.37,0,0,0,30.68,33.24Z" transform="translate(-1.57 -9.05)"/>
  </g>
</svg>
