<?xml version="1.0" encoding="utf-8"?>
<!-- Generator: Adobe Illustrator 23.0.4, SVG Export Plug-In . SVG Version: 6.00 Build 0)  -->
<svg version="1.1" xmlns="http://www.w3.org/2000/svg" xmlns:xlink="http://www.w3.org/1999/xlink" x="0px" y="0px"
	 viewBox="0 0 72 72" style="enable-background:new 0 0 72 72;" xml:space="preserve">
<style type="text/css">
	.st0{fill:#323C53;}
</style>
<g id="Layer_2">
</g>
<g id="Layer_1">
	<g>
		<path class="st0" d="M71.6,36c0-19.5-15.9-35.4-35.4-35.4c-16.1,0-29.7,10.8-34,25.6C1,29.8,0.4,33.6,0.4,37.5
			c0,0.6,0.2,1.1,0.6,1.5c1.5,18.1,16.8,32.4,35.2,32.4c18.2,0,33.2-13.8,35.2-31.5c0.1-0.3,0.2-0.6,0.2-0.9c0,0,0-0.8,0-1.6
			C71.6,36.9,71.6,36.4,71.6,36z M66.3,28.4c0,0.6-0.4,1.1-1,1.2l-4.4,0.3c-0.6,0-1.1-0.4-1.2-1c0-0.6,0.4-1.1,1-1.2l4.4-0.3
			C65.7,27.3,66.3,27.7,66.3,28.4z M58.4,20.8l2.9-3.3c0.4-0.5,1.1-0.5,1.6-0.1s0.5,1.1,0.1,1.6L60,22.3c-0.4,0.5-1.1,0.5-1.6,0.1
			S58,21.3,58.4,20.8z M48.7,9.4c0.4-0.5,1.1-0.5,1.6-0.1l3.3,2.9c0.5,0.4,0.5,1.1,0.1,1.6c-0.4,0.5-1.1,0.5-1.6,0.1l-3.3-2.9
			C48.4,10.5,48.3,9.8,48.7,9.4z M49.2,20.3c0.6,0,1.1,0.4,1.2,1l0.3,4.4c0,0.6-0.4,1.1-1,1.2c-0.6,0-1.1-0.4-1.2-1l-0.3-4.4
			C48.2,20.8,48.6,20.3,49.2,20.3z M48.4,39.5c-1.5,5.3-6.4,9.2-12.2,9.2c-5,0-9.3-2.9-11.4-7v-4.2c0-6.1,5-11.1,11.1-11.1
			s11.1,5,11.1,11.1C47.1,38.4,47.7,39.2,48.4,39.5z M40.3,17.5l2.9-3.3c0.4-0.5,1.1-0.5,1.6-0.1c0.5,0.4,0.5,1.1,0.1,1.6L42,19
			c-0.4,0.5-1.1,0.5-1.6,0.1C39.9,18.7,39.9,18,40.3,17.5z M35.1,5.4c0-0.6,0.5-1.1,1.1-1.1c0.6,0,1.1,0.5,1.1,1.1v4.5
			c0,0.6-0.5,1.1-1.1,1.1c-0.6,0-1.1-0.5-1.1-1.1V5.4z M27.5,14.1c0.5-0.4,1.2-0.4,1.6,0.1l2.9,3.3c0.4,0.5,0.4,1.2-0.1,1.6
			s-1.2,0.4-1.6-0.1l-2.9-3.3C27,15.2,27,14.5,27.5,14.1z M25.1,21.4l-0.3,4.4c0,0.6-0.6,1.1-1.2,1s-1.1-0.6-1-1.2l0.3-4.4
			c0-0.6,0.6-1.1,1.2-1C24.7,20.3,25.2,20.8,25.1,21.4z M18.7,12.2L22,9.3c0.5-0.4,1.2-0.4,1.6,0.1c0.4,0.5,0.4,1.2-0.1,1.6
			l-3.3,2.9c-0.5,0.4-1.2,0.4-1.6-0.1C18.2,13.3,18.2,12.6,18.7,12.2z M9.4,17.4C9.9,17,10.6,17,11,17.5l2.9,3.3
			c0.4,0.5,0.4,1.2-0.1,1.6c-0.5,0.4-1.2,0.4-1.6-0.1L9.3,19C8.9,18.5,9,17.8,9.4,17.4z M7.2,27.3l4.4,0.3c0.6,0,1.1,0.6,1,1.2
			c0,0.6-0.6,1.1-1.2,1L7,29.5c-0.6,0-1.1-0.6-1-1.2C6,27.7,6.6,27.3,7.2,27.3z M36.2,69.3c-17.1,0-31.3-13-33.1-29.6
			c1.8-0.3,1.8-2.2,1.8-2.2v-0.8c0-0.6,0.5-1.1,1.1-1.1c0.6,0,1.1,0.5,1.1,1.1l0,2.2c0,1.2,1,2.2,2.2,2.2s2.2-1,2.2-2.2l0-4.5
			c0-0.8,0.5-1.5,1.1-1.5s1.1,0.7,1.1,1.5l0.1,3.1c0,1.2,1,2.2,2.2,2.2c1.2,0,2.1-0.9,2.2-2v-7.1c0-0.8,0.5-1.4,1.1-1.4
			c0.6,0,1.1,0.6,1.1,1.4l0,14.4c0,1.2,1,2.2,2.2,2.2c1.1,0,2-0.8,2.2-1.8c2.7,3.3,6.8,5.4,11.4,5.4c7,0,12.9-4.9,14.4-11.4
			c0.5-0.3,0.8-0.9,0.9-1.5v-2.5c0-0.8,0.5-1.4,1.1-1.4s1.1,0.6,1.1,1.4l0,2.6c0,1.2,1,2.3,2.2,2.2c1,0,1.9-0.3,2.1-2.7
			c0-0.1,0.1-2,0.1-2c0-0.3,0.3-0.6,0.6-0.6c0.3,0,0.6,0.3,0.6,0.6v2.1c0,0-0.3,5.4,3.3,5.2c3-0.1,3-3.2,3-3.3V34
			c0-0.4,0.3-0.8,0.7-0.8c0.4,0,0.7,0.4,0.7,0.8v5c0,1.1,0.9,2,2,2.1C66.7,57.1,52.9,69.3,36.2,69.3z"/>
	</g>
</g>
</svg>
